<svg width="220" height="290" viewBox="0 0 220 290" xmlns="http://www.w3.org/2000/svg">
  <style>
    .name { font-family: sans-serif; font-size: 14px; font-weight: 500; fill: #2C2C2A; }
    .role { font-family: sans-serif; font-size: 11px; fill: #888780; }
  </style>
  <!-- body -->
  <ellipse cx="110" cy="210" rx="46" ry="40" fill="#AFA9EC" opacity="0.85"/>
  <!-- body stripes -->
  <path d="M68 200 Q110 195 152 200" stroke="#7F77DD" stroke-width="5" fill="none" stroke-linecap="round" opacity="0.6"/>
  <path d="M66 214 Q110 209 154 214" stroke="#7F77DD" stroke-width="5" fill="none" stroke-linecap="round" opacity="0.6"/>
  <path d="M68 228 Q110 223 152 228" stroke="#7F77DD" stroke-width="5" fill="none" stroke-linecap="round" opacity="0.6"/>
  <!-- paws -->
  <ellipse cx="70" cy="234" rx="16" ry="10" fill="#AFA9EC" opacity="0.85"/>
  <ellipse cx="150" cy="234" rx="16" ry="10" fill="#AFA9EC" opacity="0.85"/>
  <ellipse cx="58" cy="240" rx="6" ry="5" fill="#CECBF6"/>
  <ellipse cx="70" cy="243" rx="6" ry="5" fill="#CECBF6"/>
  <ellipse cx="82" cy="240" rx="6" ry="5" fill="#CECBF6"/>
  <ellipse cx="138" cy="240" rx="6" ry="5" fill="#CECBF6"/>
  <ellipse cx="150" cy="243" rx="6" ry="5" fill="#CECBF6"/>
  <ellipse cx="162" cy="240" rx="6" ry="5" fill="#CECBF6"/>
  <!-- tail -->
  <path d="M156 200 Q190 168 170 138 Q155 118 170 98" stroke="#7F77DD" stroke-width="8" fill="none" stroke-linecap="round"/>
  <path d="M156 200 Q190 168 170 138 Q155 118 170 98" stroke="#AFA9EC" stroke-width="4" fill="none" stroke-linecap="round" opacity="0.7"/>
  <!-- head -->
  <ellipse cx="110" cy="148" rx="36" ry="34" fill="#AFA9EC"/>
  <!-- head stripes -->
  <path d="M78 140 Q110 135 142 140" stroke="#7F77DD" stroke-width="4" fill="none" stroke-linecap="round" opacity="0.6"/>
  <path d="M78 154 Q110 149 142 154" stroke="#7F77DD" stroke-width="4" fill="none" stroke-linecap="round" opacity="0.6"/>
  <!-- ears -->
  <polygon points="82,118 72,84 98,110" fill="#AFA9EC"/>
  <polygon points="138,118 148,84 122,110" fill="#AFA9EC"/>
  <polygon points="84,114 76,92 96,108" fill="#CECBF6"/>
  <polygon points="136,114 144,92 124,108" fill="#CECBF6"/>
  <!-- big round eyes -->
  <ellipse cx="96" cy="142" rx="8" ry="8" fill="#EEEDFE"/>
  <ellipse cx="124" cy="142" rx="8" ry="8" fill="#EEEDFE"/>
  <ellipse cx="96" cy="142" rx="5" ry="6" fill="#534AB7"/>
  <ellipse cx="124" cy="142" rx="5" ry="6" fill="#534AB7"/>
  <circle cx="97" cy="140" r="2" fill="white"/>
  <circle cx="125" cy="140" r="2" fill="white"/>
  <!-- HUGE GRIN -->
  <path d="M78 163 Q110 190 142 163" stroke="#26215C" stroke-width="2.5" fill="#EEEDFE" fill-opacity="0.5"/>
  <line x1="92" y1="172" x2="94" y2="178" stroke="#26215C" stroke-width="1"/>
  <line x1="100" y1="176" x2="102" y2="182" stroke="#26215C" stroke-width="1"/>
  <line x1="110" y1="178" x2="110" y2="184" stroke="#26215C" stroke-width="1"/>
  <line x1="118" y1="176" x2="120" y2="182" stroke="#26215C" stroke-width="1"/>
  <line x1="126" y1="172" x2="128" y2="178" stroke="#26215C" stroke-width="1"/>
  <!-- whiskers -->
  <line x1="74" y1="154" x2="44" y2="148" stroke="#26215C" stroke-width="0.8" opacity="0.7"/>
  <line x1="74" y1="158" x2="44" y2="158" stroke="#26215C" stroke-width="0.8" opacity="0.7"/>
  <line x1="74" y1="162" x2="44" y2="167" stroke="#26215C" stroke-width="0.8" opacity="0.7"/>
  <line x1="146" y1="154" x2="176" y2="148" stroke="#26215C" stroke-width="0.8" opacity="0.7"/>
  <line x1="146" y1="158" x2="176" y2="158" stroke="#26215C" stroke-width="0.8" opacity="0.7"/>
  <line x1="146" y1="162" x2="176" y2="167" stroke="#26215C" stroke-width="0.8" opacity="0.7"/>
  <!-- nose -->
  <path d="M106 152 Q110 155 114 152 Q110 158 106 152Z" fill="#D4537E"/>
  <text class="name" x="110" y="268" text-anchor="middle">Cheshire Cat</text>
  <text class="role" x="110" y="282" text-anchor="middle">The mysterious guide</text>
</svg>
